<svg xmlns="http://www.w3.org/2000/svg">

    <symbol viewBox="0 0 24 24" id="heart">
        <path fill="#E86C60" d="M17,0c-1.9,0-3.7,0.8-5,2.1C10.7,0.8,8.9,0,7,0C3.1,0,0,3.1,0,7c0,6.4,10.9,15.4,11.4,15.8 c0.2,0.2,0.4,0.2,0.6,0.2s0.4-0.1,0.6-0.2C13.1,22.4,24,13.4,24,7C24,3.1,20.9,0,17,0z"></path>
    </symbol>

    <symbol viewBox="0 0 24 24" id="home">
        <path fill="#E86C60" d="M5 3h1v1h-1V3zM3 3h1v1h-1V3zM1 3h1v1H1V3zM13 13H1V5h12V13zM13 4H7v-1h6V4zM14 3c0-0.55-0.45-1-1-1H1c-0.55 0-1 0.45-1 1v10c0 0.55 0.45 1 1 1h12c0.55 0 1-0.45 1-1V3z"></path>
    </symbol>

    <symbol viewBox="0 0 32 32" id="logo">
        <path d="M8 0c-4.355 0-7.898 3.481-7.998 7.812 0.092-3.779 2.966-6.812 6.498-6.812 3.59 0 6.5 3.134 6.5 7 0 0.828 0.672 1.5 1.5 1.5s1.5-0.672 1.5-1.5c0-4.418-3.582-8-8-8zM8 16c4.355 0 7.898-3.481 7.998-7.812-0.092 3.779-2.966 6.812-6.498 6.812-3.59 0-6.5-3.134-6.5-7 0-0.828-0.672-1.5-1.5-1.5s-1.5 0.672-1.5 1.5c0 4.418 3.582 8 8 8z"></path>
    </symbol>

    <symbol viewBox="0 0 32 32" id="search-icon">
        <path d="M15.504 13.616l-3.79-3.223c-0.392-0.353-0.811-0.514-1.149-0.499 0.895-1.048 1.435-2.407 1.435-3.893 0-3.314-2.686-6-6-6s-6 2.686-6 6 2.686 6 6 6c1.486 0 2.845-0.54 3.893-1.435-0.016 0.338 0.146 0.757 0.499 1.149l3.223 3.79c0.552 0.613 1.453 0.665 2.003 0.115s0.498-1.452-0.115-2.003zM6 10c-2.209 0-4-1.791-4-4s1.791-4 4-4 4 1.791 4 4-1.791 4-4 4z"></path>
    </symbol>

    <symbol viewBox="0 0 1024 1024" id="maximize">
        <path d="M811.86816 199.10656a20.6848 20.6848 0 0 0-7.82336-1.57696H575.54944a20.48 20.48 0 1 0 0 40.96h179.05664L444.416 548.67968a20.45952 20.45952 0 1 0 28.95872 28.95872L783.5648 267.4688v179.05664a20.48 20.48 0 1 0 40.96 0V218.03008a20.5824 20.5824 0 0 0-12.65664-18.92352z"></path>
        <path d="M804.0448 573.1328a20.48 20.48 0 0 0-20.48 20.48v218.3168h-573.44v-573.44h218.78784a20.48 20.48 0 1 0 0-40.96H189.6448a20.48 20.48 0 0 0-20.48 20.48v614.4a20.48 20.48 0 0 0 20.48 20.48h614.4a20.48 20.48 0 0 0 20.48-20.48v-238.7968a20.48 20.48 0 0 0-20.48-20.48z"></path>
    </symbol>

    <symbol viewBox="0 0 1024 1024" id="minimize">
        <path d="M192.128 768l639.68 0C867.264 768 896 796.416 896 832c0 35.392-29.184 64-64.192 64L192.128 896C156.736 896 128 867.584 128 832 128 796.608 157.184 768 192.128 768z"></path>
    </symbol>

    <symbol viewBox="0 0 1024 1024" id="close">
        <path d="M557.312 513.248l265.28-263.904c12.544-12.48 12.608-32.704 0.128-45.248-12.512-12.576-32.704-12.608-45.248-0.128L512.128 467.904l-263.04-263.84c-12.448-12.48-32.704-12.544-45.248-0.064-12.512 12.48-12.544 32.736-0.064 45.28l262.976 263.776L201.6 776.8c-12.544 12.48-12.608 32.704-0.128 45.248a31.937 31.937 0 0 0 22.688 9.44c8.16 0 16.32-3.104 22.56-9.312l265.216-263.808 265.44 266.24c6.24 6.272 14.432 9.408 22.656 9.408a31.94 31.94 0 0 0 22.592-9.344c12.512-12.48 12.544-32.704 0.064-45.248L557.312 513.248z"></path>
    </symbol>

    <symbol viewBox="0 0 1024 1024" id="play">
        <path d="M298.666667 256v512l426.666666-256z"></path>
    </symbol>

    <symbol viewBox="0 0 1024 1024" id="pause">
        <path d="M281.6 230.4h128v563.2h-128zM614.4 230.4h128v563.2h-128z"></path>
        <!-- <path d="M337 223c-19.8 0-36 16.2-36 36v503c0 19.8 16.2 36 36 36s36-16.2 36-36V259c0-19.8-16.2-36-36-36zM688 223c-19.8 0-36 16.2-36 36v503c0 19.8 16.2 36 36 36s36-16.2 36-36V259c0-19.8-16.2-36-36-36z"></path> -->
    </symbol>

    <symbol viewBox="0 0 1024 1024" id="play-last">
        <path d="M682.666667 298.666667l-298.666667 213.333333 298.666667 213.333333z m-298.666667 213.333333V298.666667H298.666667v426.666666h85.333333z"></path>
    </symbol>

    <symbol viewBox="0 0 1024 1024" id="play-next">
        <path d="M298.666667 298.666667v426.666666l298.666666-213.333333z m384 426.666666V298.666667h-85.333334v426.666666z"></path>
    </symbol>

    <symbol viewBox="0 0 1024 1024" id="voice-close">
        <path d="M525.541 131.503L295.047 279.535h-114.99c-63.894 0-115.679 51.15-115.679 115.219v230.898c0 63.665 51.151 115.22 115.68 115.22h114.989L525.54 888.787c32.582 14.13 57.84-0.98 57.84-33.043V164.546c0-32.121-25.892-46.826-57.84-33.043z"></path>
    </symbol>

    <symbol viewBox="0 0 1024 1024" id="voice-open">
        <path d="M525.541 131.503L295.047 279.535h-114.99c-63.894 0-115.679 51.15-115.679 115.219v230.898c0 63.665 51.151 115.22 115.68 115.22h114.989L525.54 888.787c32.582 14.13 57.84-0.98 57.84-33.043V164.546c0-32.121-25.892-46.826-57.84-33.043z m194.224 186.034c-10.842-11.65-29.122-12.284-40.712-1.385-11.65 10.9-12.227 29.123-1.385 40.771 5.363 5.766 14.532 18.512 23.99 37.772 16.146 32.871 25.892 71.45 25.892 115.508 0 44.059-9.746 82.694-25.892 115.508-9.458 19.26-18.627 32.005-23.99 37.772-10.9 11.648-10.265 29.871 1.385 40.77 11.648 10.9 29.871 10.265 40.77-1.384 9.054-9.688 21.51-26.988 33.621-51.727 19.895-40.483 31.775-87.654 31.775-140.996 0-53.342-11.88-100.514-31.775-140.996-12.17-24.625-24.626-41.984-33.68-51.613z m176.807-35.696c-23.298-39.444-46.826-66.779-63.318-81.484-11.88-10.61-30.103-9.572-40.715 2.365-10.61 11.937-9.573 30.102 2.365 40.712 2.71 2.421 8.131 7.843 15.397 16.262 12.456 14.416 24.911 31.601 36.619 51.44 33.504 56.86 53.63 123.349 53.63 199.066s-20.126 142.207-53.687 199.125c-11.707 19.837-24.221 37.022-36.62 51.439-7.265 8.418-12.686 13.84-15.397 16.261-11.88 10.61-12.916 28.834-2.364 40.714 10.553 11.88 28.834 12.917 40.713 2.364 16.494-14.705 40.022-41.982 63.32-81.484 38.522-65.336 61.645-141.745 61.645-228.419 0.059-86.615-23.066-163.024-61.588-228.361z"></path>
    </symbol>

    <symbol viewBox="0 0 1024 1024" id="play-order">
        <path d="M46.545455 408.565657h879.191919v103.434343H46.545455v-103.434343z m0-258.585859h879.191919v103.434343H46.545455v-103.434343z m724.040404 413.737374l206.868686 155.151515-206.868686 155.151515v-103.434343H46.545455v-103.434344h724.040404v-103.434343z"></path>
    </symbol>

    <symbol viewBox="0 0 1024 1024" id="play-random">
        <path d="M791.000964 257.204467v49.949096c-85.908962 0-132.578425-2.46698-210.825237 42.635224-13.669973 7.865314-24.611757 15.962814-37.817357 25.07613-6.936568 4.759821-11.725412 8.968199-17.762259 13.669973-6.094893 4.759821-11.17397 8.823083-17.123745 14.33751-3.802052 3.569866-4.469588 3.424749-8.242617 6.559265-25.859759 21.622357-91.800692 89.536874-119.401848 117.428264-6.152939 6.240009-10.65155 8.648943-16.688396 14.743835-6.269032 6.385126-10.506434 9.026246-16.63035 14.830905-40.690664 38.775126-112.813559 78.362905-171.527691 80.075279-20.577518 0.609489-42.315968-0.08707-63.00958-0.116093-47.075789-0.058047-36.946658 33.550932-36.946659 87.011848 0 12.218808 13.669973 25.888782 25.917805 25.888781 98.069724 0 152.169151 1.857491 238.74565-48.004534 12.421972-7.139731 22.231846-13.002438 33.986282-21.506264l31.461255-24.031291c34.276515-26.962644 117.050961-111.768721 155.042458-150.195567 27.2819-27.601156 62.342044-51.83561 97.605351-68.930333 6.036846-2.90233 12.712205-5.36931 19.822912-7.894337 34.624795-12.276855 74.531829-8.736013 113.394026-8.736013 0 43.56397-7.981407 81.410351 29.603764 81.410351 19.329516 0 70.439544-62.313021 87.38915-79.088487 6.036846-5.978799 10.65155-10.65155 16.659373-16.659373 23.973244-23.973244 29.139391-23.247662 29.139391-48.555977 0-13.234624-52.09682-60.426506-63.357859-71.687546l-41.300153-41.938666c-24.64078-32.012698-58.133666-23.189615-58.133666 13.72802z"></path>
        <path d="M482.047956 601.304688c11.522249 17.210816 78.827277 67.740378 101.72666 79.581883 85.212403 43.99932 114.322771 40.66164 207.226348 40.661641 0 33.579956-7.575081 83.267842 25.888781 83.267842 19.706819 0 30.967859-18.313701 39.297546-27.310924l67.537214-67.508191c24.55371-24.55371 30.068137-24.843943 30.068137-49.484723 0-13.321694-39.732895-47.424069-54.157474-62.400091-4.150332-4.353495-4.556658-5.978799-8.300663-10.216201-9.954991-11.319086-22.347939-22.376963-33.289723-33.318746-14.337509-14.337509-21.070914-27.2819-44.840995-27.2819-29.139391 0-22.202823 56.885664-22.202823 81.410351-89.159571 0-120.330594 3.627912-196.923077-56.566408-6.240009-4.904937-11.870529-8.852106-17.239839-14.192393-4.556658-4.527634-12.131739-11.028853-17.094723-14.337509-13.350717 7.052661-29.342554 26.266085-39.413638 38.28173-10.622527 12.741228-29.981067 26.991667-38.281731 39.413639zM75.025225 305.296072v61.065019c0 12.654158 12.770251 24.611757 29.661811 25.830735 57.64027 4.150332 80.191372-9.432572 149.034635 19.329516 13.55388 5.659543 24.408594 11.754436 36.511309 18.981237 30.880789 18.400771 38.775126 28.587949 63.35786 47.627232l30.387393 26.962644c13.495834-9.026246 55.231336-56.943711 69.249589-67.653308 5.485403-4.208378 6.646335-4.556658 10.30327-10.042061-4.382518-6.559265-19.648773-21.128961-26.324131-27.310923l-22.028683-18.661981c-14.946998-12.044669-17.443002-16.54328-39.326569-30.996882-22.638172-14.946998-42.838388-28.907205-69.017403-40.110198-12.857321-5.514427-26.120968-11.377133-40.168244-15.353324-67.798424-19.1844-96.966839-15.556488-165.723032-15.556488-12.567088 0-25.917805 13.234624-25.917805 25.888782z"></path>
    </symbol>

    <symbol viewBox="0 0 1024 1024" id="play-cycle">
        <path d="M889.9584 592.4864a45.8752 45.8752 0 0 0-57.9584 29.7984A237.568 237.568 0 0 1 606.6176 788.48H431.4112a241.664 241.664 0 0 1 0-483.328h241.664c1.2288 16.0768 3.072 32.0512 5.5296 48.128a25.7024 25.7024 0 0 0 32.9728 20.48 490.0864 490.0864 0 0 0 173.056-95.9488 26.3168 26.3168 0 0 0 0-39.8336A529.408 529.408 0 0 0 711.7824 143.36a25.4976 25.4976 0 0 0-33.28 20.48c-2.4576 16.0768-4.3008 32.1536-5.5296 48.128H431.4112C250.0608 212.0704 102.4 362.3936 102.4 547.2256s147.5584 335.1552 329.0112 335.1552h175.3088a329.5232 329.5232 0 0 0 312.6272-231.0144 47.0016 47.0016 0 0 0-29.3888-58.88z"></path>
    </symbol>

    <symbol viewBox="0 0 1024 1024" id="play-single">
        <path d="M889.9584 592.4864a45.8752 45.8752 0 0 0-57.9584 29.7984A237.568 237.568 0 0 1 606.6176 788.48H431.4112a241.664 241.664 0 0 1 0-483.328h241.664c1.2288 16.0768 3.072 32.0512 5.5296 48.128a25.7024 25.7024 0 0 0 32.9728 20.48 490.0864 490.0864 0 0 0 173.056-95.9488 26.3168 26.3168 0 0 0 0-39.8336A529.408 529.408 0 0 0 711.7824 143.36a25.4976 25.4976 0 0 0-33.28 20.48c-2.4576 16.0768-4.3008 32.1536-5.5296 48.128H431.4112C250.0608 212.0704 102.4 362.3936 102.4 547.2256s147.5584 335.1552 329.0112 335.1552h175.3088a329.5232 329.5232 0 0 0 312.6272-231.0144 47.0016 47.0016 0 0 0-29.3888-58.88z"></path>
        <path d="M561.4592 715.776V384.3072h-40.96a206.9504 206.9504 0 0 1-41.7792 32.4608 196.9152 196.9152 0 0 1-47.3088 19.456v53.8624a187.5968 187.5968 0 0 0 75.6736-40.3456v266.24z"></path>
    </symbol>

    <symbol viewBox="0 0 1024 1024" id="lyrics-btn" >
        <path d="M1006.344828 572.027586v-459.034483s0-35.310345-21.186207-67.089655C971.034483 21.186207 942.786207 0 889.82069 0H134.17931S17.655172 0 17.655172 116.524138v773.296552s0 35.310345 21.186207 67.089655c17.655172 24.717241 45.903448 45.903448 95.337931 45.903448h755.64138s116.524138 0 116.524138-116.524138v-314.262069z m-56.496552 317.793104c-3.531034 56.496552-56.496552 56.496552-56.496552 56.496551H127.117241c-7.062069 0-24.717241-7.062069-35.310344-17.655172-14.124138-14.124138-17.655172-31.77931-17.655173-38.841379V116.524138c3.531034-56.496552 56.496552-56.496552 56.496552-56.496552h766.234483c7.062069 0 24.717241 7.062069 35.310344 17.655173 14.124138 14.124138 17.655172 31.77931 17.655173 38.841379v773.296552z"></path>
        <path d="M236.57931 451.972414c3.531034-14.124138 3.531034-24.717241 3.531035-31.779311 0-7.062069 0-17.655172-3.531035-31.77931 17.655172 3.531034 38.841379 3.531034 52.965518 3.531035H335.448276c17.655172 0 31.77931 0 45.903448-3.531035-3.531034 24.717241-7.062069 49.434483-7.062069 70.62069v218.924138c17.655172-21.186207 35.310345-38.841379 52.965517-56.496552 7.062069 21.186207 14.124138 42.372414 21.186207 52.965517-38.841379 31.77931-77.682759 70.62069-120.055172 120.055173-10.593103-17.655172-21.186207-31.77931-31.77931-49.434483 17.655172-17.655172 28.248276-35.310345 28.248275-52.965517v-243.64138h-35.310344c-21.186207 0-35.310345 0-52.965518 3.531035z m49.434483-211.862069c17.655172-7.062069 35.310345-14.124138 49.434483-24.717242 10.593103 31.77931 31.77931 63.558621 60.027586 95.337931-17.655172 7.062069-35.310345 14.124138-49.434483 24.717242C321.324138 289.544828 300.137931 257.765517 286.013793 240.110345z m141.241379 180.082758c3.531034-14.124138 3.531034-24.717241 3.531035-31.77931s0-17.655172-3.531035-31.77931c28.248276 3.531034 45.903448 3.531034 52.965518 3.531034h155.365517c10.593103 0 28.248276 0 49.434483-3.531034-3.531034 14.124138-3.531034 24.717241-3.531035 31.77931 0 7.062069 0 17.655172 3.531035 31.77931-14.124138-3.531034-28.248276-3.531034-45.903449-3.531034h-158.896551c-17.655172 0-35.310345 0-52.965518 3.531034z m21.186207-127.117241c0-14.124138 3.531034-24.717241 3.531035-31.77931 0-7.062069 0-17.655172-3.531035-31.779311 21.186207 3.531034 38.841379 3.531034 49.434483 3.531035h233.048276c10.593103 0 28.248276 0 52.965517-3.531035-3.531034 17.655172-3.531034 35.310345-3.531034 52.965518v459.034482c0 21.186207-7.062069 35.310345-21.186207 42.372414s-42.372414 17.655172-81.213793 21.186207c-3.531034-24.717241-14.124138-45.903448-31.779311-67.089655 17.655172 3.531034 31.77931 3.531034 42.372414 3.531034 14.124138 0 24.717241 0 28.248276-3.531034 3.531034-3.531034 7.062069-10.593103 7.062069-21.186207V289.544828h-222.455172c-14.124138 0-31.77931 3.531034-52.965518 3.531034z m7.062069 459.034483c3.531034-17.655172 3.531034-35.310345 3.531035-49.434483v-183.613793c0-14.124138 0-24.717241-3.531035-42.372414 17.655172 3.531034 35.310345 3.531034 49.434483 3.531035h98.868966c17.655172 0 35.310345 0 52.965517-3.531035-3.531034 14.124138-3.531034 28.248276-3.531035 45.903448v155.365518c0 14.124138 0 28.248276 3.531035 49.434482h-52.965517v-14.124137-31.779311h-98.868966v31.779311c0 10.593103 0 24.717241 3.531035 38.841379-10.593103 0-21.186207-3.531034-24.717242-3.531035-3.531034 0-14.124138 3.531034-28.248276 3.531035z m148.303449-222.455173h-98.868966v112.993104h98.868966V529.655172z"></path>
    </symbol>

    <symbol viewBox="0 0 1024 1024" id="play-list">
        <path d="M32 932v60h60a300 300 0 0 1-60-60zM32 32v540a300 300 0 0 1 60-60V92h840v840H512a300 300 0 0 1-60 60h540V32z"></path>
        <path d="M272 512a240 240 0 1 0 240 240 240 240 0 0 0-240-240z m-90 360v-240l180 120zM272 212h600v60H272zM272 392h600v60H272zM572 572h300v60H572zM572 752h300v60H572z"></path>
    </symbol>

    <symbol viewBox="0 0 1024 1024" id="slider">
        <path d="M511.997156 925.895111c-228.580504 0-413.897007-185.317452-413.897008-413.902696 0-228.589985 185.317452-413.887526 413.897008-413.887526 228.595674 0 413.902696 185.296593 413.902696 413.887526 0 228.585244-185.307022 413.902696-413.902696 413.902696z m0.005688-776.047881c-200.005215 0-362.160356 162.139022-362.160355 362.155614 0 200.010904 162.155141 362.165096 362.160355 362.165097 200.021333 0 362.165096-162.155141 362.165097-362.165097 0-200.016593-162.143763-362.155615-362.165097-362.155614z m-0.005688 546.096355c-101.5808 0-183.94643-82.3552-183.94643-183.95117s82.36563-183.956859 183.94643-183.956859c101.59597 0 183.9616 82.360889 183.9616 183.956859S613.594074 695.943585 511.997156 695.943585z"></path>
    </symbol>

    <symbol viewBox="0 0 1024 1024" id="find-music">
        <path d="M849.5 281.9V124.1c0-27.6-23.7-48.8-50.1-44.7l-486.7 76.3c-20.2 3.2-35.2 21.2-35.2 42.4v503.6c-15.1-6-31.6-9.3-48.8-9.3-73.1 0-132.4 59.3-132.4 132.5s59.3 132.5 132.4 132.5S361 898.2 361 825c0-2.3-0.1-4.6-0.2-6.9h0.2V358.5L765.9 295v323.1c-15.2-6-31.7-9.4-49-9.4-73.3 0-132.6 59.3-132.6 132.5s59.4 132.5 132.6 132.5 132.6-59.3 132.6-132.5c0-3.6-0.2-7.2-0.4-10.8V282l0.4-0.1z"></path>
    </symbol>

    <symbol viewBox="0 0 1024 1024" id="local-music">
        <path d="M511.575328 959.427332c-247.185752 0-447.569572-200.382796-447.569572-447.568549 0-247.185752 200.38382-447.568549 447.569572-447.568549s447.569572 200.382796 447.569572 447.568549C959.1449 759.044536 758.76108 959.427332 511.575328 959.427332zM511.575328 120.235408c-216.288045 0-391.621329 175.337377-391.621329 391.624399 0 216.285998 175.332261 391.621329 391.621329 391.621329s391.621329-175.335331 391.621329-391.621329C903.196657 295.572786 727.864396 120.235408 511.575328 120.235408zM581.508074 302.060547l0 321.69063c0 0.034792-0.010233 0.067538-0.010233 0.102331 3.051499 55.954383-48.027853 112.579031-123.117039 132.093481-83.324754 21.655206-164.625408-10.582009-181.593871-72.005964-16.96744-61.422931 36.82265-128.771829 120.147404-150.427034 47.345308-12.304234 94.02035-7.192819 128.628566 10.769274L525.5629 246.11435c0-7.724938 6.263657-13.985526 13.985526-13.985526l27.974122 0c3.400446 0 6.475482 1.261737 8.899694 3.278673 15.372106 0.240477 35.255968 6.940063 61.033052 24.694425 85.668125 59.004859 111.892393 41.958624 111.892393 41.958624l0 55.946196C749.34564 358.006743 682.909531 373.742123 581.508074 302.060547zM418.052305 580.721151c-46.651506 12.916171-88.300069 55.165414-79.134315 90.51655 9.166777 35.351136 67.053162 54.623062 112.331391 37.502126 38.781258-14.662955 75.608002-49.634444 74.314543-84.98251 0-0.002047-0.001023-0.004093-0.001023-0.00614l0-0.00921C524.21009 587.251891 464.698694 567.806004 418.052305 580.721151z"></path>
    </symbol>

    <symbol viewBox="0 0 1024 1024" id="love-Hollow">
        <path d="M508.783 927.208c-4.998 0-9.607-1.098-13.7-3.263-59.828-29.747-168.302-110.899-265.239-218.887-50.848-56.644-91.277-112.65-120.163-166.465-33.727-62.83-50.828-121.363-50.828-173.974 0-108.376 50.56-170.902 92.974-204.272 47.115-37.068 111.558-59.198 172.384-59.198 37.786 0 76.862 11.6 116.144 34.479 28.826 16.79 52.34 36.52 68.427 51.785 16.088-15.264 39.6-34.996 68.428-51.785 39.28-22.878 78.353-34.48 116.137-34.48 60.826 0 125.27 22.13 172.387 59.199 42.416 33.369 92.978 95.896 92.978 204.272 0 52.606-17.1 111.14-50.824 173.974-28.879 53.804-69.296 109.813-120.132 166.464-96.908 107.997-205.344 189.197-265.083 218.94a31.315 31.315 0 0 1-13.89 3.21zM324.213 162.07c-82.017 0-204.038 53.943-204.038 202.55 0 186.876 268.955 430.488 388.61 497.762 119.63-67.262 388.537-310.86 388.537-497.763 0-148.606-121.982-202.549-203.973-202.549-43.25 0-83.864 23.238-110.32 42.734-28.975 21.35-47.966 43.057-50.166 45.625l-0.081 0.132-0.485 0.55c-5.936 6.742-14.726 10.766-23.514 10.766-8.78 0-17.57-4.022-23.512-10.762l-0.357-0.405-0.076-0.111c-3.783-4.396-77.925-88.529-160.625-88.529z"></path>
    </symbol>

    <symbol viewBox="0 0 1024 1024" id="love-solid">
        <path d="M714.752 106.496c-78.848 0-153.088 35.328-202.752 92.672-49.664-57.344-123.904-92.672-202.752-92.672C169.472 106.496 61.44 212.48 61.44 349.696c0 167.936 153.088 302.592 385.024 510.464l65.536 57.344 65.536-57.344c231.936-207.872 385.024-342.528 385.024-510.464 0-137.216-108.032-243.2-247.808-243.2z"></path>
    </symbol>

    <symbol viewBox="0 0 1024 1024" id="play-icon">
        <path d="M702.9 514.6c0 7.1-3.5 13.2-8.7 17.4l0.2 0.3L445 690.4l-0.2-0.3c-3.9 3.1-8.6 5.2-13.9 5.2-12.5 0-22.7-10.1-22.7-22.6V356.4c0-12.5 10.1-22.6 22.7-22.6 5.3 0 10.1 2.1 13.9 5.2l0.2-0.3L694.4 497l-0.2 0.3c5.1 4.1 8.7 10.2 8.7 17.3m256.5-2.1c0-246.5-200.8-447-447.6-447S64.2 266 64.2 512.5s200.8 447 447.6 447 447.6-200.5 447.6-447z m-54.6 0c0 216.3-176.3 392.3-393 392.3s-393-176-393-392.3 176.3-392.3 393-392.3 393 176 393 392.3z"></path>
    </symbol>

    <symbol viewBox="0 0 1024 1024" id="collect">
        <path d="M109.380688 894.476041c-21.844517 0-45.243437-30.29191-45.243437-51.611471L64.137251 189.612499c0-19.273972 21.405519-60.087517 45.243437-60.087517l343.593476 0c3.654226 0 7.840572 0.900509 11.237949 7.523347l45.655829 98.521874 331.2391 0c20.161179 0 30.398334 4.372587 30.398334 28.27702l0 141.40045 58.680471 0c6.297426 0 25.304316 0 28.278043 25.14161l0 412.475286c0 23.376407-17.34504 51.611471-38.884612 51.611471L109.380688 894.476041zM101.245404 158.14788c-7.02602 7.024997-14.492062 20.439518-14.492062 31.464619l0 653.253094c0 10.612709 7.436366 18.048051 12.356422 22.966061l6.005784 6.007831 8.507768 0.014326 805.967218 0 6.006807-6.003737c8.127098-8.128121 8.127098-18.920932 8.127098-22.984481L933.724439 427.864788 578.107115 427.864788c-4.740978 0-9.653871-3.704368-10.651594-6.201236l-0.177032-0.437975L444.968839 152.142096 107.251188 152.142096 101.245404 158.14788zM586.183048 405.247674l262.701121 0L848.884169 258.19141 518.536368 258.19141 586.183048 405.247674z"></path>
    </symbol>
    
    <symbol viewBox="0 0 1024 1024" id="download">
        <path d="M485.376 658.432c1.536 1.536 3.072 3.072 5.632 4.608 0.512 0.512 1.024 1.024 2.048 1.024 1.536 1.024 3.072 2.048 5.12 2.56 0.512 0.512 1.536 0.512 2.56 1.024s2.048 0.512 3.072 1.024c2.048 0.512 4.608 0.512 6.656 0.512s4.608 0 6.656-0.512c1.536 0 2.56-0.512 3.072-1.024 0.512 0 1.024-0.512 1.536-0.512h2.56l2.048-2.048c0.512 0 1.024-0.512 1.536-1.024l0.512-0.512c3.072-1.536 5.632-4.096 6.656-5.12l171.008-171.008c6.656-6.144 10.24-14.336 10.24-23.552 0-9.216-3.584-18.432-10.24-25.6-6.656-6.656-15.36-10.24-24.576-10.24-8.704 0-17.92 4.096-24.576 10.24l-110.592 112.128V169.472c0-19.456-15.36-34.816-34.816-34.816s-34.816 15.36-34.816 34.816v381.44l-112.128-112.128c-6.656-6.656-14.848-10.24-24.576-10.24-8.704 0-16.384 3.072-25.088 9.216l-0.512 0.512-0.512 0.512c-6.656 6.144-10.24 14.336-10.752 23.552 0 9.216 3.584 18.432 10.24 25.6l172.032 170.496z"></path>
        <path d="M929.792 577.024c-1.024-19.456-16.384-34.304-35.328-34.304-19.456 0-34.816 15.36-34.816 34.816v188.928c0 29.184-24.064 53.248-53.248 53.248h-590.336c-29.184 0-53.248-24.064-53.248-53.248v-188.928c0-19.456-15.36-34.816-34.816-34.816s-34.816 15.36-34.816 34.816v188.928c0 67.584 55.296 122.88 122.88 122.88h591.36c67.584 0 122.88-55.296 122.88-122.88v-188.928l-0.512-0.512z"></path>
    </symbol>

    <symbol viewBox="0 0 1024 1024" id="lrc-close">
        <path d="M789.333333 341.333333c-12.8 0-21.333333 8.533333-21.333333 21.333333l0 576L85.333333 938.666667 85.333333 256l576 0c12.8 0 21.333333-8.533333 21.333333-21.333333 0-12.8-8.533333-21.333333-21.333333-21.333333L64 213.333333c-12.8 0-21.333333 8.533333-21.333333 21.333333l0 725.333333c0 12.8 8.533333 21.333333 21.333333 21.333333l725.333333 0c12.8 0 21.333333-8.533333 21.333333-21.333333L810.666667 362.666667C810.666667 349.866667 802.133333 341.333333 789.333333 341.333333zM960 42.666667 746.666667 42.666667c-12.8 0-21.333333 8.533333-21.333333 21.333333 0 12.8 8.533333 21.333333 21.333333 21.333333l162.133333 0L305.066667 689.066667C300.8 693.333333 298.666667 697.6 298.666667 704c0 12.8 8.533333 21.333333 21.333333 21.333333 6.4 0 10.666667-2.133333 14.933333-6.4L938.666667 115.2 938.666667 277.333333c0 12.8 8.533333 21.333333 21.333333 21.333333s21.333333-8.533333 21.333333-21.333333L981.333333 64C981.333333 51.2 972.8 42.666667 960 42.666667z"></path>
    </symbol>
  
</svg>


